<?xml version="1.0" encoding="utf-8"?>
<!-- Generator: Adobe Illustrator 24.3.0, SVG Export Plug-In . SVG Version: 6.00 Build 0)  -->
<svg version="1.1" id="Layer_1" xmlns="http://www.w3.org/2000/svg" xmlns:xlink="http://www.w3.org/1999/xlink" x="0px" y="0px"
	 viewBox="0 0 288 288" style="enable-background:new 0 0 288 288;" xml:space="preserve">
<style type="text/css">
	.st0{fill:#55C2F1;}
	.st1{fill:#FFFFFF;}
	.st2{fill:#FFDA47;}
</style>
<circle class="st0" cx="143.2" cy="141.8" r="124.8"/>
<path class="st1" d="M154.3,64.4h44.3c11.5,0,20.1,3.2,25.8,9.5c5.7,6.4,8.7,15.8,8.8,28.3l0.4,75.2c0.1,15.8-2.6,27.8-8.2,35.7
	c-5.6,8-14.9,12-27.9,12h-43.2V64.4z M192.3,196.7c5.9,0,8.8-2.9,8.8-8.6v-82.9c0-3.6-0.3-6.3-0.8-8.1c-0.6-1.8-1.6-3-3.1-3.6
	c-1.5-0.6-3.8-0.9-6.9-0.9h-3.6v104.2H192.3z"/>
<g>
	<g>
		<path class="st2" d="M100.7,63.7h42.7c12.9,0,22.1,4.2,27.6,12.5c5.5,8.3,8.3,20.5,8.3,36.6c0,16-2.4,28.1-7.3,36.3
			c-4.9,8.1-13.7,12.2-26.3,12.2h-13.2v63.9h-31.8V63.7z M134.3,132.1c3.9,0,6.7-0.7,8.6-2.2c1.8-1.4,3-3.5,3.6-6.2
			c0.6-2.7,0.8-6.5,0.8-11.6c0-6.8-0.8-11.7-2.3-14.7c-1.5-3-4.5-4.5-9-4.5h-3.6v39.1H134.3z"/>
	</g>
</g>
<path class="st1" d="M141.4,91.1c-1.7-3.6-9.4-10.3-12.2-13.3c-1.8-2-6.2-5.8-8.1-7.1c-6.2-4.2-12.2-6.3-19-6.8
	c-2.3-0.2-20.4,0.7-21.3,1.1c-1,0.4-1.5,0.8-3.8,2.9c-3.3,3-4.7,3.9-6.8,4c-1.3,0.1-3.3-0.5-4.4-1.2c-0.7-0.5-0.8-0.6-0.9-1.1
	c-0.3-1.4-1.4-2.5-3-2.9c-0.6-0.2-1.4-0.2-3.2,0c-2.9,0.3-3.7,0.6-4.9,1.8c-1.5,1.6-1.5,1.7-1.3,10.7c0.2,7,0.2,7.8,0.6,8.4
	c0.5,0.9,1.3,1.7,2,2.1l0,0c1.1,0.6,2.1,0.7,4.5,0.5c2.7-0.2,3.4-0.4,4.5-1.1c1.1-0.7,1.4-1.3,1.5-2.3c0.1-1.1,0.5-1.7,1.7-2.4
	c2.2-1.4,6.9-1.7,10-0.6c1.6,0.6,2.1,0.9,3.3,2.1c1.5,1.5,1.7,2,1.8,5.7l0,0.9v130.9c0,1,0.8,1.9,1.9,1.9H99c1,0,1.9-0.8,1.9-1.9
	V89.1c0-0.1,0-0.2,0-0.2c0-1,0.1-1.8,0.1-2.1c0.4-2.3,2.2-4,5-4.8c0.7-0.2,1.8-0.3,3.2-0.2c7.9,0.2,20.2,6,27.3,11
	c0.8,0.6,2.7,2.1,3.5,1.6C142.1,93.1,141.6,91.5,141.4,91.1z M100.2,87.7 M100.8,88.5 M100.5,87.9 M100.7,88.2"/>
</svg>
